{
	"asset":{
		"generator":"Khronos glTF Blender I/O v3.6.27",
		"version":"2.0"
	},
	"scene":0,
	"scenes":[
		{
			"name":"Scene",
			"nodes":[
				0
			]
		}
	],
	"nodes":[
		{
			"mesh":0,
			"name":"fort"
		}
	],
	"meshes":[
		{
			"name":"fort",
			"primitives":[
				{
					"attributes":{
						"POSITION":0,
						"NORMAL":1,
						"TEXCOORD_0":2
					},
					"indices":3
				}
			]
		}
	],
	"accessors":[
		{
			"bufferView":0,
			"componentType":5126,
			"count":89,
			"max":[
				1.3816723823547363,
				1.5,
				1.3797804117202759
			],
			"min":[
				-1.3816723823547363,
				0,
				-1.3797804117202759
			],
			"type":"VEC3"
		},
		{
			"bufferView":1,
			"componentType":5126,
			"count":89,
			"type":"VEC3"
		},
		{
			"bufferView":2,
			"componentType":5126,
			"count":89,
			"type":"VEC2"
		},
		{
			"bufferView":3,
			"componentType":5123,
			"count":144,
			"type":"SCALAR"
		}
	],
	"bufferViews":[
		{
			"buffer":0,
			"byteLength":1068,
			"byteOffset":0,
			"target":34962
		},
		{
			"buffer":0,
			"byteLength":1068,
			"byteOffset":1068,
			"target":34962
		},
		{
			"buffer":0,
			"byteLength":712,
			"byteOffset":2136,
			"target":34962
		},
		{
			"buffer":0,
			"byteLength":288,
			"byteOffset":2848,
			"target":34963
		}
	],
	"buffers":[
		{
			"byteLength":3136,
			"uri":"data:application/octet-stream;base64,"
		}
	]
}
